<?xml version="1.0" encoding="utf-8"?>
<svg xmlns="http://www.w3.org/2000/svg" fill="none" version="1.1" viewBox="-223.61 -90.5113 447.219 208.394" x="-223.61pt" y="-90.5113pt" width="447.219pt" height="208.394pt" stroke-width="1.133858" stroke-miterlimit="10.000000">
 <g stroke-linecap="butt" stroke-dasharray="none">
  <path d="M0 -0L4.3393e-15 -70.8661" stroke="#e5e5e5"/>
 </g>
 <g stroke-linecap="butt" stroke-dasharray="none">
  <path d="M0 -0L-67.3977 -21.8988" stroke="#e5e5e5"/>
 </g>
 <g stroke-linecap="butt" stroke-dasharray="none">
  <path d="M0 -0L-41.6541 57.3319" stroke="#e5e5e5"/>
 </g>
 <g stroke-linecap="butt" stroke-dasharray="none">
  <path d="M0 -0L41.6541 57.3319" stroke="#e5e5e5"/>
 </g>
 <g stroke-linecap="butt" stroke-dasharray="none">
  <path d="M0 -0L67.3977 -21.8988" stroke="#e5e5e5"/>
 </g>
 <g stroke-linecap="round" stroke-dasharray="0.000000 4.000000" stroke-dashoffset="0.000000">
  <path d="M0 -0L0 -0L-0 -0L-0 0L0 0L0 -0Z" stroke="#4c4c4c"/>
 </g>
 <g stroke-linecap="round" stroke-dasharray="0.000000 4.000000" stroke-dashoffset="0.000000">
  <path d="M0 -14.1732L8.6786e-16 -14.1732L-13.4795 -4.37977L-8.33081 11.4664L8.33081 11.4664L13.4795 -4.37977Z" stroke="#4c4c4c"/>
 </g>
 <g stroke-linecap="round" stroke-dasharray="0.000000 4.000000" stroke-dashoffset="0.000000">
  <path d="M0 -28.3465L1.73572e-15 -28.3465L-26.9591 -8.75954L-16.6616 22.9328L16.6616 22.9328L26.9591 -8.75954Z" stroke="#4c4c4c"/>
 </g>
 <g stroke-linecap="round" stroke-dasharray="0.000000 4.000000" stroke-dashoffset="0.000000">
  <path d="M0 -42.5197L2.60358e-15 -42.5197L-40.4386 -13.1393L-24.9924 34.3991L24.9924 34.3991L40.4386 -13.1393Z" stroke="#4c4c4c"/>
 </g>
 <g stroke-linecap="round" stroke-dasharray="0.000000 4.000000" stroke-dashoffset="0.000000">
  <path d="M0 -56.6929L3.47144e-15 -56.6929L-53.9182 -17.5191L-33.3233 45.8655L33.3233 45.8655L53.9182 -17.5191Z" stroke="#4c4c4c"/>
 </g>
 <g stroke-linecap="butt" stroke-dasharray="none">
  <path d="M0 -70.8661L4.3393e-15 -70.8661L-67.3977 -21.8988L-41.6541 57.3319L41.6541 57.3319L67.3977 -21.8988Z" stroke="#e5e5e5"/>
 </g>
 <g transform="matrix(1.000000,0.000000,0.000000,1.000000,0.000000,-85.039370)">
  <path d="M-27.3426 2.36608M-26.4624 -4.53352L-27.3426 -4.53352L-27.3426 2.36608L-23.0552 2.36608L-23.0552 1.58999L-26.4624 1.58999ZM-26.4624 1.58999" fill="#4c4c4c"/>
  <path d="M-22.44 2.36608M-17.774 1.90232C-17.8592 1.92125 -17.8971 1.92125 -17.9444 1.92125C-18.2189 1.92125 -18.3703 1.77928 -18.3703 1.53321L-18.3703 -1.38185C-18.3703 -2.26205 -19.0139 -2.73527 -20.2348 -2.73527C-20.9541 -2.73527 -21.5504 -2.52705 -21.8816 -2.15794C-22.1088 -1.9024 -22.2034 -1.61846 -22.2223 -1.12631L-21.4273 -1.12631C-21.3611 -1.73204 -21.0014 -2.00651 -20.2632 -2.00651C-19.5534 -2.00651 -19.1558 -1.7415 -19.1558 -1.26828L-19.1558 -1.06006C-19.1558 -0.728803 -19.3546 -0.586836 -19.9793 -0.51112C-21.0961 -0.369153 -21.2664 -0.331295 -21.5693 -0.208257C-22.1466 0.0283554 -22.44 0.473186 -22.44 1.11677C-22.44 2.0159 -21.8154 2.58376 -20.8121 2.58376C-20.1875 2.58376 -19.6859 2.36608 -19.1275 1.855C-19.0707 2.35662 -18.8246 2.58376 -18.3135 2.58376C-18.1526 2.58376 -18.0296 2.56484 -17.774 2.49858ZM-17.774 2.49858M-19.1558 0.804443C-19.1558 1.06945 -19.2316 1.23034 -19.4682 1.44803C-19.79 1.74143 -20.178 1.89286 -20.6418 1.89286C-21.257 1.89286 -21.6166 1.59946 -21.6166 1.09784C-21.6166 0.577295 -21.2664 0.31229 -20.4241 0.189252C-19.5912 0.0756778 -19.4209 0.0378199 -19.1558 -0.0852183ZM-19.1558 -0.0852183" fill="#4c4c4c"/>
  <path d="M-16.9128 2.36608M-16.9128 -2.5933L-16.9128 2.36608L-16.1178 2.36608L-16.1178 -0.369153C-16.1178 -1.38185 -15.5878 -2.04437 -14.7739 -2.04437C-14.1492 -2.04437 -13.7517 -1.66579 -13.7517 -1.06952L-13.7517 2.36608L-12.9661 2.36608L-12.9661 -1.38185C-12.9661 -2.20526 -13.5813 -2.73527 -14.5372 -2.73527C-15.2755 -2.73527 -15.7487 -2.45134 -16.1841 -1.76043L-16.1841 -2.5933ZM-16.1841 -2.5933" fill="#4c4c4c"/>
  <path d="M-12.0387 2.36608M-8.41379 -2.5933L-8.41379 -1.874C-8.8113 -2.4608 -9.29399 -2.73527 -9.92811 -2.73527C-11.1869 -2.73527 -12.0387 -1.63739 -12.0387 -0.0284314C-12.0387 0.785514 -11.821 1.44803 -11.414 1.92125C-11.0449 2.33769 -10.5149 2.58376 -9.99436 2.58376C-9.3697 2.58376 -8.93434 2.31876 -8.48951 1.6941L-8.48951 1.94964C-8.48951 2.62162 -8.57469 3.02859 -8.77344 3.30306C-8.98166 3.59646 -9.38863 3.76682 -9.87132 3.76682C-10.231 3.76682 -10.5528 3.67218 -10.7704 3.50182C-10.9503 3.35985 -11.026 3.22735 -11.0733 2.93395L-11.8778 2.93395C-11.7926 3.87093 -11.0638 4.42934 -9.89971 4.42934C-9.16148 4.42934 -8.52736 4.19273 -8.20557 3.79522C-7.82699 3.34092 -7.68503 2.71627 -7.68503 1.55214L-7.68503 -2.5933ZM-7.68503 -2.5933M-9.84293 -2.00651C-8.99112 -2.00651 -8.48951 -1.28721 -8.48951 -0.0473604C-8.48951 1.1357 -9.00059 1.855 -9.83346 1.855C-10.6947 1.855 -11.2153 1.12623 -11.2153 -0.0757538C-11.2153 -1.26828 -10.6853 -2.00651 -9.84293 -2.00651ZM-9.84293 -2.00651" fill="#4c4c4c"/>
  <path d="M-6.72917 2.36608M-2.90553 -1.21149C-2.91499 -2.18633 -3.55857 -2.73527 -4.70378 -2.73527C-5.85844 -2.73527 -6.60614 -2.13901 -6.60614 -1.22096C-6.60614 -0.444868 -6.20863 -0.0757538 -5.03503 0.208181L-4.2968 0.388006C-3.74786 0.520508 -3.53018 0.719262 -3.53018 1.07891C-3.53018 1.54267 -3.99394 1.855 -4.68485 1.855C-5.11075 1.855 -5.4704 1.73196 -5.66915 1.52374C-5.79219 1.38178 -5.84898 1.23981 -5.8963 0.889623L-6.72917 0.889623C-6.69132 2.03482 -6.04773 2.58376 -4.7511 2.58376C-3.50179 2.58376 -2.70677 1.96857 -2.70677 1.01266C-2.70677 0.274432 -3.12321 -0.132541 -4.10751 -0.369153L-4.86467 -0.548978C-5.50826 -0.700409 -5.78273 -0.908628 -5.78273 -1.25881C-5.78273 -1.71311 -5.37575 -2.00651 -4.73217 -2.00651C-4.09805 -2.00651 -3.75733 -1.73204 -3.7384 -1.21149ZM-3.7384 -1.21149" fill="#4c4c4c"/>
  <path d="M0.369092 2.36608M5.55563 2.36608L7.01316 -2.5933L6.12349 -2.5933L5.13919 1.2682L4.16435 -2.5933L3.19897 -2.5933L2.25252 1.2682L1.23982 -2.5933L0.369092 -2.5933L1.80769 2.36608L2.69735 2.36608L3.65327 -1.52382L4.6565 2.36608ZM4.6565 2.36608" fill="#4c4c4c"/>
  <path d="M7.42958 2.36608M11.9063 0.151394C11.9063 -0.605765 11.8495 -1.06006 11.7075 -1.42917C11.3857 -2.24312 10.6286 -2.73527 9.70105 -2.73527C8.31924 -2.73527 7.42958 -1.67525 7.42958 -0.0473604C7.42958 1.58053 8.29084 2.58376 9.68212 2.58376C10.8179 2.58376 11.6034 1.94018 11.8022 0.861229L11.0071 0.861229C10.7895 1.51428 10.3446 1.855 9.71052 1.855C9.2089 1.855 8.783 1.62785 8.51799 1.21142C8.3287 0.927481 8.26245 0.643546 8.25299 0.151394ZM8.25299 0.151394M8.27191 -0.492191C8.33817 -1.41025 8.89657 -2.00651 9.69159 -2.00651C10.4677 -2.00651 11.0639 -1.36292 11.0639 -0.548978C11.0639 -0.530049 11.0639 -0.51112 11.0545 -0.492191ZM11.0545 -0.492191" fill="#4c4c4c"/>
  <path d="M12.5877 2.36608M16.2126 -2.5933L16.2126 -1.874C15.815 -2.4608 15.3324 -2.73527 14.6982 -2.73527C13.4395 -2.73527 12.5877 -1.63739 12.5877 -0.0284314C12.5877 0.785514 12.8053 1.44803 13.2123 1.92125C13.5814 2.33769 14.1114 2.58376 14.632 2.58376C15.2566 2.58376 15.692 2.31876 16.1368 1.6941L16.1368 1.94964C16.1368 2.62162 16.0517 3.02859 15.8529 3.30306C15.6447 3.59646 15.2377 3.76682 14.755 3.76682C14.3954 3.76682 14.0736 3.67218 13.8559 3.50182C13.6761 3.35985 13.6004 3.22735 13.553 2.93395L12.7486 2.93395C12.8337 3.87093 13.5625 4.42934 14.7266 4.42934C15.4649 4.42934 16.099 4.19273 16.4208 3.79522C16.7993 3.34092 16.9413 2.71627 16.9413 1.55214L16.9413 -2.5933ZM16.9413 -2.5933M14.7834 -2.00651C15.6352 -2.00651 16.1368 -1.28721 16.1368 -0.0473604C16.1368 1.1357 15.6258 1.855 14.7929 1.855C13.9316 1.855 13.4111 1.12623 13.4111 -0.0757538C13.4111 -1.26828 13.9411 -2.00651 14.7834 -2.00651ZM14.7834 -2.00651" fill="#4c4c4c"/>
  <path d="M17.954 2.36608M22.4307 0.151394C22.4307 -0.605765 22.3739 -1.06006 22.2319 -1.42917C21.9101 -2.24312 21.1529 -2.73527 20.2254 -2.73527C18.8436 -2.73527 17.954 -1.67525 17.954 -0.0473604C17.954 1.58053 18.8152 2.58376 20.2065 2.58376C21.3422 2.58376 22.1278 1.94018 22.3265 0.861229L21.5315 0.861229C21.3138 1.51428 20.869 1.855 20.2349 1.855C19.7333 1.855 19.3074 1.62785 19.0424 1.21142C18.8531 0.927481 18.7868 0.643546 18.7774 0.151394ZM18.7774 0.151394M18.7963 -0.492191C18.8625 -1.41025 19.4209 -2.00651 20.216 -2.00651C20.992 -2.00651 21.5883 -1.36292 21.5883 -0.548978C21.5883 -0.530049 21.5883 -0.51112 21.5788 -0.492191ZM21.5788 -0.492191" fill="#4c4c4c"/>
  <path d="M23.5001 2.36608M23.5001 -2.5933L23.5001 2.36608L24.2951 2.36608L24.2951 -0.369153C24.2951 -1.38185 24.8251 -2.04437 25.639 -2.04437C26.2637 -2.04437 26.6612 -1.66579 26.6612 -1.06952L26.6612 2.36608L27.4468 2.36608L27.4468 -1.38185C27.4468 -2.20526 26.8316 -2.73527 25.8757 -2.73527C25.1374 -2.73527 24.6642 -2.45134 24.2288 -1.76043L24.2288 -2.5933ZM24.2288 -2.5933" fill="#4c4c4c"/>
 </g>
 <g transform="matrix(1.000000,0.000000,0.000000,1.000000,-80.877247,-26.278611)">
  <path d="M-21.7397 3.34096M-20.8595 0.369111L-18.588 0.369111C-17.8025 0.369111 -17.4523 0.74769 -17.4523 1.59949L-17.4617 2.21468C-17.4617 2.64059 -17.386 3.05702 -17.263 3.34096L-16.1935 3.34096L-16.1935 3.12327C-16.5248 2.89613 -16.591 2.65005 -16.6099 1.732C-16.6194 0.596258 -16.7992 0.255537 -17.5469 -0.0662554C-16.7708 -0.444835 -16.4585 -0.927523 -16.4585 -1.71307C-16.4585 -2.9056 -17.2062 -3.55865 -18.5596 -3.55865L-21.7397 -3.55865L-21.7397 3.34096L-20.8595 3.34096ZM-20.8595 3.34096M-20.8595 -0.406977L-20.8595 -2.78256L-18.73 -2.78256C-18.2378 -2.78256 -17.9539 -2.70684 -17.7362 -2.51756C-17.4996 -2.3188 -17.3766 -2.00647 -17.3766 -1.59004C-17.3766 -0.776091 -17.793 -0.406977 -18.73 -0.406977ZM-18.73 -0.406977" fill="#4c4c4c"/>
  <path d="M-15.3891 3.34096M-10.7231 2.8772C-10.8082 2.89613 -10.8461 2.89613 -10.8934 2.89613C-11.1679 2.89613 -11.3193 2.75416 -11.3193 2.50808L-11.3193 -0.406977C-11.3193 -1.28717 -11.9629 -1.7604 -13.1838 -1.7604C-13.9031 -1.7604 -14.4994 -1.55218 -14.8307 -1.18306C-15.0578 -0.927523 -15.1524 -0.643589 -15.1714 -0.151436L-14.3764 -0.151436C-14.3101 -0.757162 -13.9505 -1.03163 -13.2122 -1.03163C-12.5024 -1.03163 -12.1049 -0.766627 -12.1049 -0.293403L-12.1049 -0.0851844C-12.1049 0.246072 -12.3036 0.388039 -12.9283 0.463755C-14.0451 0.605722 -14.2155 0.64358 -14.5183 0.766619C-15.0957 1.00323 -15.3891 1.44806 -15.3891 2.09165C-15.3891 2.99077 -14.7644 3.55864 -13.7612 3.55864C-13.1365 3.55864 -12.6349 3.34096 -12.0765 2.82987C-12.0197 3.33149 -11.7736 3.55864 -11.2625 3.55864C-11.1016 3.55864 -10.9786 3.53971 -10.7231 3.47346ZM-10.7231 3.47346M-12.1049 1.77932C-12.1049 2.04432 -12.1806 2.20522 -12.4172 2.4229C-12.739 2.7163 -13.127 2.86773 -13.5908 2.86773C-14.206 2.86773 -14.5656 2.57433 -14.5656 2.07272C-14.5656 1.55217 -14.2155 1.28716 -13.3731 1.16413C-12.5402 1.05055 -12.3699 1.0127 -12.1049 0.889657ZM-12.1049 0.889657" fill="#4c4c4c"/>
  <path d="M-9.86186 3.34096M-9.86186 -1.61843L-9.86186 3.34096L-9.06685 3.34096L-9.06685 0.605722C-9.06685 -0.406977 -8.53684 -1.06949 -7.72289 -1.06949C-7.09824 -1.06949 -6.70073 -0.690911 -6.70073 -0.0946489L-6.70073 3.34096L-5.91518 3.34096L-5.91518 -0.406977C-5.91518 -1.23039 -6.53037 -1.7604 -7.48628 -1.7604C-8.22451 -1.7604 -8.69773 -1.47646 -9.1331 -0.785556L-9.1331 -1.61843ZM-9.1331 -1.61843" fill="#4c4c4c"/>
  <path d="M-5.01611 3.34096M-0.577272 -3.55865L-1.36282 -3.55865L-1.36282 -0.993774C-1.69408 -1.49539 -2.22409 -1.7604 -2.8866 -1.7604C-4.17377 -1.7604 -5.01611 -0.728769 -5.01611 0.851799C-5.01611 2.52701 -4.1927 3.55864 -2.85821 3.55864C-2.17677 3.55864 -1.70354 3.3031 -1.27764 2.68791L-1.27764 3.34096L-0.577272 3.34096ZM-0.577272 3.34096M-2.7541 -1.02217C-1.9023 -1.02217 -1.36282 -0.265009 -1.36282 0.91805C-1.36282 2.06325 -1.91176 2.82041 -2.74464 2.82041C-3.61537 2.82041 -4.1927 2.05379 -4.1927 0.899121C-4.1927 -0.255545 -3.61537 -1.02217 -2.7541 -1.02217ZM-2.7541 -1.02217" fill="#4c4c4c"/>
 </g>
 <g transform="matrix(1.000000,0.000000,0.000000,1.000000,-49.984888,68.798296)">
  <path d="M-85.5295 2.36608M-81.2043 0.293361L-80.4944 2.36608L-79.5101 2.36608L-81.933 -4.53352L-83.0688 -4.53352L-85.5295 2.36608L-84.5926 2.36608L-83.8638 0.293361ZM-83.8638 0.293361M-81.4504 -0.444868L-83.6461 -0.444868L-82.5104 -3.58708ZM-82.5104 -3.58708" fill="#4c4c4c"/>
  <path d="M-79.1032 2.36608M-75.4784 -2.5933L-75.4784 -1.874C-75.8759 -2.4608 -76.3585 -2.73527 -76.9927 -2.73527C-78.2514 -2.73527 -79.1032 -1.63739 -79.1032 -0.0284314C-79.1032 0.785514 -78.8856 1.44803 -78.4786 1.92125C-78.1095 2.33769 -77.5795 2.58376 -77.0589 2.58376C-76.4343 2.58376 -75.9989 2.31876 -75.5541 1.6941L-75.5541 1.94964C-75.5541 2.62162 -75.6392 3.02859 -75.838 3.30306C-76.0462 3.59646 -76.4532 3.76682 -76.9359 3.76682C-77.2955 3.76682 -77.6173 3.67218 -77.835 3.50182C-78.0148 3.35985 -78.0905 3.22735 -78.1379 2.93395L-78.9424 2.93395C-78.8572 3.87093 -78.1284 4.42934 -76.9643 4.42934C-76.226 4.42934 -75.5919 4.19273 -75.2701 3.79522C-74.8916 3.34092 -74.7496 2.71627 -74.7496 1.55214L-74.7496 -2.5933ZM-74.7496 -2.5933M-76.9075 -2.00651C-76.0557 -2.00651 -75.5541 -1.28721 -75.5541 -0.0473604C-75.5541 1.1357 -76.0652 1.855 -76.898 1.855C-77.7593 1.855 -78.2798 1.12623 -78.2798 -0.0757538C-78.2798 -1.26828 -77.7498 -2.00651 -76.9075 -2.00651ZM-76.9075 -2.00651" fill="#4c4c4c"/>
  <path d="M-73.5571 2.36608M-73.5571 -2.5933L-73.5571 2.36608L-72.7621 2.36608L-72.7621 -0.208257C-72.7621 -0.918092 -72.5823 -1.38185 -72.2037 -1.65632C-71.9576 -1.83615 -71.721 -1.89293 -71.1721 -1.9024L-71.1721 -2.70688C-71.3046 -2.72581 -71.3708 -2.73527 -71.4749 -2.73527C-71.986 -2.73527 -72.3741 -2.43241 -72.8283 -1.69418L-72.8283 -2.5933ZM-72.8283 -2.5933" fill="#4c4c4c"/>
  <path d="M-70.7557 2.36608M-66.0897 1.90232C-66.1748 1.92125 -66.2127 1.92125 -66.26 1.92125C-66.5345 1.92125 -66.6859 1.77928 -66.6859 1.53321L-66.6859 -1.38185C-66.6859 -2.26205 -67.3295 -2.73527 -68.5504 -2.73527C-69.2697 -2.73527 -69.866 -2.52705 -70.1972 -2.15794C-70.4244 -1.9024 -70.519 -1.61846 -70.538 -1.12631L-69.743 -1.12631C-69.6767 -1.73204 -69.317 -2.00651 -68.5788 -2.00651C-67.869 -2.00651 -67.4715 -1.7415 -67.4715 -1.26828L-67.4715 -1.06006C-67.4715 -0.728803 -67.6702 -0.586836 -68.2949 -0.51112C-69.4117 -0.369153 -69.5821 -0.331295 -69.8849 -0.208257C-70.4623 0.0283554 -70.7557 0.473186 -70.7557 1.11677C-70.7557 2.0159 -70.131 2.58376 -69.1278 2.58376C-68.5031 2.58376 -68.0015 2.36608 -67.4431 1.855C-67.3863 2.35662 -67.1402 2.58376 -66.6291 2.58376C-66.4682 2.58376 -66.3452 2.56484 -66.0897 2.49858ZM-66.0897 2.49858M-67.4715 0.804443C-67.4715 1.06945 -67.5472 1.23034 -67.7838 1.44803C-68.1056 1.74143 -68.4936 1.89286 -68.9574 1.89286C-69.5726 1.89286 -69.9322 1.59946 -69.9322 1.09784C-69.9322 0.577295 -69.5821 0.31229 -68.7397 0.189252C-67.9068 0.0756778 -67.7365 0.0378199 -67.4715 -0.0852183ZM-67.4715 -0.0852183" fill="#4c4c4c"/>
  <path d="M-65.2379 2.36608M-65.2379 -2.5933L-65.2379 2.36608L-64.4429 2.36608L-64.4429 -0.208257C-64.4429 -0.918092 -64.2631 -1.38185 -63.8845 -1.65632C-63.6384 -1.83615 -63.4018 -1.89293 -62.8529 -1.9024L-62.8529 -2.70688C-62.9854 -2.72581 -63.0516 -2.73527 -63.1557 -2.73527C-63.6668 -2.73527 -64.0549 -2.43241 -64.5092 -1.69418L-64.5092 -2.5933ZM-64.5092 -2.5933" fill="#4c4c4c"/>
  <path d="M-61.9728 2.36608M-61.1778 -2.5933L-61.9634 -2.5933L-61.9634 2.36608L-61.1778 2.36608ZM-61.1778 2.36608M-61.1778 -4.53352L-61.9728 -4.53352L-61.9728 -3.53975L-61.1778 -3.53975ZM-61.1778 -3.53975" fill="#4c4c4c"/>
  <path d="M-60.1746 2.36608M-56.3509 -1.21149C-56.3604 -2.18633 -57.004 -2.73527 -58.1492 -2.73527C-59.3039 -2.73527 -60.0516 -2.13901 -60.0516 -1.22096C-60.0516 -0.444868 -59.6541 -0.0757538 -58.4805 0.208181L-57.7422 0.388006C-57.1933 0.520508 -56.9756 0.719262 -56.9756 1.07891C-56.9756 1.54267 -57.4394 1.855 -58.1303 1.855C-58.5562 1.855 -58.9158 1.73196 -59.1146 1.52374C-59.2376 1.38178 -59.2944 1.23981 -59.3417 0.889623L-60.1746 0.889623C-60.1367 2.03482 -59.4932 2.58376 -58.1965 2.58376C-56.9472 2.58376 -56.1522 1.96857 -56.1522 1.01266C-56.1522 0.274432 -56.5686 -0.132541 -57.5529 -0.369153L-58.3101 -0.548978C-58.9537 -0.700409 -59.2281 -0.908628 -59.2281 -1.25881C-59.2281 -1.71311 -58.8212 -2.00651 -58.1776 -2.00651C-57.5435 -2.00651 -57.2028 -1.73204 -57.1838 -1.21149ZM-57.1838 -1.21149" fill="#4c4c4c"/>
  <path d="M-55.4708 2.36608M-51.3064 -0.927557C-51.3442 -1.41025 -51.4483 -1.72257 -51.6376 -1.99704C-51.9784 -2.4608 -52.5746 -2.73527 -53.2655 -2.73527C-54.6 -2.73527 -55.4708 -1.67525 -55.4708 -0.0284314C-55.4708 1.57107 -54.6189 2.58376 -53.275 2.58376C-52.0919 2.58376 -51.3442 1.87393 -51.2496 0.662475L-52.0446 0.662475C-52.1771 1.45749 -52.5841 1.855 -53.2561 1.855C-54.1268 1.855 -54.6473 1.14516 -54.6473 -0.0284314C-54.6473 -1.26828 -54.1363 -2.00651 -53.275 -2.00651C-52.6125 -2.00651 -52.196 -1.61846 -52.1014 -0.927557ZM-52.1014 -0.927557" fill="#4c4c4c"/>
  <path d="M-50.3694 2.36608M-50.3694 -4.53352L-50.3694 2.36608L-49.5838 2.36608L-49.5838 -0.369153C-49.5838 -1.38185 -49.0538 -2.04437 -48.2399 -2.04437C-47.9844 -2.04437 -47.7288 -1.95918 -47.5395 -1.81722C-47.3124 -1.65632 -47.2177 -1.41971 -47.2177 -1.06952L-47.2177 2.36608L-46.4322 2.36608L-46.4322 -1.38185C-46.4322 -2.21473 -47.0284 -2.73527 -47.9938 -2.73527C-48.6942 -2.73527 -49.1201 -2.51759 -49.5838 -1.91186L-49.5838 -4.53352ZM-49.5838 -4.53352" fill="#4c4c4c"/>
  <path d="M-42.4951 2.36608M-41.7001 -4.53352L-42.4951 -4.53352L-42.4951 2.36608L-41.7001 2.36608ZM-41.7001 2.36608" fill="#4c4c4c"/>
  <path d="M-40.6401 2.36608M-35.9741 1.90232C-36.0593 1.92125 -36.0971 1.92125 -36.1445 1.92125C-36.4189 1.92125 -36.5704 1.77928 -36.5704 1.53321L-36.5704 -1.38185C-36.5704 -2.26205 -37.214 -2.73527 -38.4349 -2.73527C-39.1542 -2.73527 -39.7504 -2.52705 -40.0817 -2.15794C-40.3088 -1.9024 -40.4035 -1.61846 -40.4224 -1.12631L-39.6274 -1.12631C-39.5611 -1.73204 -39.2015 -2.00651 -38.4633 -2.00651C-37.7534 -2.00651 -37.3559 -1.7415 -37.3559 -1.26828L-37.3559 -1.06006C-37.3559 -0.728803 -37.5547 -0.586836 -38.1793 -0.51112C-39.2961 -0.369153 -39.4665 -0.331295 -39.7694 -0.208257C-40.3467 0.0283554 -40.6401 0.473186 -40.6401 1.11677C-40.6401 2.0159 -40.0154 2.58376 -39.0122 2.58376C-38.3876 2.58376 -37.8859 2.36608 -37.3275 1.855C-37.2707 2.35662 -37.0247 2.58376 -36.5136 2.58376C-36.3527 2.58376 -36.2297 2.56484 -35.9741 2.49858ZM-35.9741 2.49858M-37.3559 0.804443C-37.3559 1.06945 -37.4316 1.23034 -37.6683 1.44803C-37.99 1.74143 -38.3781 1.89286 -38.8418 1.89286C-39.457 1.89286 -39.8167 1.59946 -39.8167 1.09784C-39.8167 0.577295 -39.4665 0.31229 -38.6242 0.189252C-37.7913 0.0756778 -37.6209 0.0378199 -37.3559 -0.0852183ZM-37.3559 -0.0852183" fill="#4c4c4c"/>
  <path d="M-35.1129 2.36608M-35.1129 -2.5933L-35.1129 2.36608L-34.3179 2.36608L-34.3179 -0.369153C-34.3179 -1.38185 -33.7879 -2.04437 -32.9739 -2.04437C-32.3493 -2.04437 -31.9518 -1.66579 -31.9518 -1.06952L-31.9518 2.36608L-31.1662 2.36608L-31.1662 -1.38185C-31.1662 -2.20526 -31.7814 -2.73527 -32.7373 -2.73527C-33.4756 -2.73527 -33.9488 -2.45134 -34.3841 -1.76043L-34.3841 -2.5933ZM-34.3841 -2.5933" fill="#4c4c4c"/>
  <path d="M-30.2672 2.36608M-25.8283 -4.53352L-26.6139 -4.53352L-26.6139 -1.96865C-26.9451 -2.47027 -27.4751 -2.73527 -28.1376 -2.73527C-29.4248 -2.73527 -30.2672 -1.70364 -30.2672 -0.123076C-30.2672 1.55214 -29.4437 2.58376 -28.1093 2.58376C-27.4278 2.58376 -26.9546 2.32822 -26.5287 1.71303L-26.5287 2.36608L-25.8283 2.36608ZM-25.8283 2.36608M-28.0051 -1.99704C-27.1533 -1.99704 -26.6139 -1.23988 -26.6139 -0.0568249C-26.6139 1.08838 -27.1628 1.84554 -27.9957 1.84554C-28.8664 1.84554 -29.4437 1.07891 -29.4437 -0.0757538C-29.4437 -1.23042 -28.8664 -1.99704 -28.0051 -1.99704ZM-28.0051 -1.99704" fill="#4c4c4c"/>
  <path d="M-24.9292 2.36608M-21.1056 -1.21149C-21.1151 -2.18633 -21.7586 -2.73527 -22.9039 -2.73527C-24.0585 -2.73527 -24.8062 -2.13901 -24.8062 -1.22096C-24.8062 -0.444868 -24.4087 -0.0757538 -23.2351 0.208181L-22.4969 0.388006C-21.9479 0.520508 -21.7303 0.719262 -21.7303 1.07891C-21.7303 1.54267 -22.194 1.855 -22.8849 1.855C-23.3108 1.855 -23.6705 1.73196 -23.8692 1.52374C-23.9923 1.38178 -24.0491 1.23981 -24.0964 0.889623L-24.9292 0.889623C-24.8914 2.03482 -24.2478 2.58376 -22.9512 2.58376C-21.7019 2.58376 -20.9068 1.96857 -20.9068 1.01266C-20.9068 0.274432 -21.3233 -0.132541 -22.3076 -0.369153L-23.0647 -0.548978C-23.7083 -0.700409 -23.9828 -0.908628 -23.9828 -1.25881C-23.9828 -1.71311 -23.5758 -2.00651 -22.9322 -2.00651C-22.2981 -2.00651 -21.9574 -1.73204 -21.9385 -1.21149ZM-21.9385 -1.21149" fill="#4c4c4c"/>
  <path d="M-20.2254 2.36608M-16.061 -0.927557C-16.0989 -1.41025 -16.203 -1.72257 -16.3923 -1.99704C-16.733 -2.4608 -17.3293 -2.73527 -18.0202 -2.73527C-19.3547 -2.73527 -20.2254 -1.67525 -20.2254 -0.0284314C-20.2254 1.57107 -19.3736 2.58376 -18.0296 2.58376C-16.8466 2.58376 -16.0989 1.87393 -16.0042 0.662475L-16.7993 0.662475C-16.9318 1.45749 -17.3387 1.855 -18.0107 1.855C-18.8814 1.855 -19.402 1.14516 -19.402 -0.0284314C-19.402 -1.26828 -18.8909 -2.00651 -18.0296 -2.00651C-17.3671 -2.00651 -16.9507 -1.61846 -16.8561 -0.927557ZM-16.8561 -0.927557" fill="#4c4c4c"/>
  <path d="M-15.1241 2.36608M-15.1241 -4.53352L-15.1241 2.36608L-14.3385 2.36608L-14.3385 -0.369153C-14.3385 -1.38185 -13.8085 -2.04437 -12.9945 -2.04437C-12.739 -2.04437 -12.4835 -1.95918 -12.2942 -1.81722C-12.067 -1.65632 -11.9724 -1.41971 -11.9724 -1.06952L-11.9724 2.36608L-11.1868 2.36608L-11.1868 -1.38185C-11.1868 -2.21473 -11.7831 -2.73527 -12.7485 -2.73527C-13.4488 -2.73527 -13.8747 -2.51759 -14.3385 -1.91186L-14.3385 -4.53352ZM-14.3385 -4.53352" fill="#4c4c4c"/>
  <path d="M-10.1269 2.36608M-5.46088 1.90232C-5.54606 1.92125 -5.58392 1.92125 -5.63124 1.92125C-5.90571 1.92125 -6.05714 1.77928 -6.05714 1.53321L-6.05714 -1.38185C-6.05714 -2.26205 -6.70073 -2.73527 -7.92164 -2.73527C-8.64095 -2.73527 -9.23721 -2.52705 -9.56846 -2.15794C-9.79561 -1.9024 -9.89026 -1.61846 -9.90919 -1.12631L-9.11417 -1.12631C-9.04792 -1.73204 -8.68827 -2.00651 -7.95004 -2.00651C-7.2402 -2.00651 -6.84269 -1.7415 -6.84269 -1.26828L-6.84269 -1.06006C-6.84269 -0.728803 -7.04145 -0.586836 -7.6661 -0.51112C-8.78291 -0.369153 -8.95327 -0.331295 -9.25614 -0.208257C-9.83347 0.0283554 -10.1269 0.473186 -10.1269 1.11677C-10.1269 2.0159 -9.50221 2.58376 -8.49898 2.58376C-7.87432 2.58376 -7.37271 2.36608 -6.8143 1.855C-6.75751 2.35662 -6.51144 2.58376 -6.00036 2.58376C-5.83946 2.58376 -5.71642 2.56484 -5.46088 2.49858ZM-5.46088 2.49858M-6.84269 0.804443C-6.84269 1.06945 -6.91841 1.23034 -7.15502 1.44803C-7.47681 1.74143 -7.86486 1.89286 -8.32862 1.89286C-8.94381 1.89286 -9.30346 1.59946 -9.30346 1.09784C-9.30346 0.577295 -8.95327 0.31229 -8.11093 0.189252C-7.27806 0.0756778 -7.1077 0.0378199 -6.84269 -0.0852183ZM-6.84269 -0.0852183" fill="#4c4c4c"/>
  <path d="M-4.75111 2.36608M-4.75111 4.42934L-3.95609 4.42934L-3.95609 1.84554C-3.53965 2.35662 -3.07589 2.58376 -2.43231 2.58376C-1.1546 2.58376 -0.312266 1.55214 -0.312266 -0.0284314C-0.312266 -1.69418 -1.12621 -2.73527 -2.44177 -2.73527C-3.11375 -2.73527 -3.65323 -2.43241 -4.02234 -1.84561L-4.02234 -2.5933L-4.75111 -2.5933ZM-4.75111 -2.5933M-2.57428 -1.99704C-1.70354 -1.99704 -1.13568 -1.23042 -1.13568 -0.0473604C-1.13568 1.07891 -1.71301 1.84554 -2.57428 1.84554C-3.40715 1.84554 -3.95609 1.08838 -3.95609 -0.0757538C-3.95609 -1.23988 -3.40715 -1.99704 -2.57428 -1.99704ZM-2.57428 -1.99704" fill="#4c4c4c"/>
 </g>
 <g transform="matrix(1.000000,0.000000,0.000000,1.000000,49.984888,68.798296)">
  <path d="M0.416437 3.40962M6.71031 -0.234201L3.83311 -0.234201L3.83311 0.541886L5.93423 0.541886L5.93423 0.731176C5.93423 1.96156 5.02564 2.85122 3.76686 2.85122C3.06649 2.85122 2.43237 2.59568 2.0254 2.15085C1.5711 1.65869 1.29663 0.835285 1.29663 -0.016518C1.29663 -1.71066 2.26201 -2.82747 3.71954 -2.82747C4.7701 -2.82747 5.52725 -2.28799 5.71654 -1.39833L6.61567 -1.39833C6.36959 -2.79907 5.30957 -3.60355 3.729 -3.60355C2.88667 -3.60355 2.20522 -3.38587 1.66575 -2.94104C0.870732 -2.27853 0.416437 -1.20904 0.416437 0.0308044C0.416437 2.15085 1.71307 3.62731 3.57757 3.62731C4.51456 3.62731 5.26225 3.27712 5.93423 2.52943L6.15191 3.44748L6.71031 3.44748ZM6.71031 3.44748" fill="#4c4c4c"/>
  <path d="M8.01632 3.40962M8.01632 -1.54976L8.01632 3.40962L8.81134 3.40962L8.81134 0.835285C8.81134 0.125449 8.99116 -0.33831 9.36974 -0.61278C9.61582 -0.792605 9.85243 -0.849392 10.4014 -0.858856L10.4014 -1.66334C10.2689 -1.68227 10.2026 -1.69173 10.0985 -1.69173C9.58742 -1.69173 9.19938 -1.38887 8.74509 -0.650638L8.74509 -1.54976ZM8.74509 -1.54976" fill="#4c4c4c"/>
  <path d="M10.8178 3.40962M15.4838 2.94586C15.3986 2.96479 15.3607 2.96479 15.3134 2.96479C15.0389 2.96479 14.8875 2.82283 14.8875 2.57675L14.8875 -0.33831C14.8875 -1.21851 14.2439 -1.69173 13.023 -1.69173C12.3037 -1.69173 11.7074 -1.48351 11.3762 -1.1144C11.149 -0.858856 11.0544 -0.574922 11.0355 -0.0827693L11.8305 -0.0827693C11.8967 -0.688496 12.2564 -0.962966 12.9946 -0.962966C13.7044 -0.962966 14.102 -0.69796 14.102 -0.224736L14.102 -0.016518C14.102 0.314739 13.9032 0.456706 13.2785 0.532422C12.1617 0.674389 11.9914 0.712247 11.6885 0.835285C11.1112 1.0719 10.8178 1.51673 10.8178 2.16031C10.8178 3.05944 11.4424 3.62731 12.4457 3.62731C13.0703 3.62731 13.5719 3.40962 14.1303 2.89854C14.1871 3.40016 14.4332 3.62731 14.9443 3.62731C15.1052 3.62731 15.2282 3.60838 15.4838 3.54213ZM15.4838 3.54213M14.102 1.84798C14.102 2.11299 14.0262 2.27389 13.7896 2.49157C13.4678 2.78497 13.0798 2.9364 12.616 2.9364C12.0008 2.9364 11.6412 2.643 11.6412 2.14138C11.6412 1.62084 11.9914 1.35583 12.8337 1.23279C13.6666 1.11922 13.837 1.08136 14.102 0.958323ZM14.102 0.958323" fill="#4c4c4c"/>
  <path d="M16.0043 3.40962M19.8279 -0.16795C19.8184 -1.14279 19.1749 -1.69173 18.0297 -1.69173C16.875 -1.69173 16.1273 -1.09547 16.1273 -0.177414C16.1273 0.598673 16.5248 0.967788 17.6984 1.25172L18.4366 1.43155C18.9856 1.56405 19.2032 1.7628 19.2032 2.12245C19.2032 2.58621 18.7395 2.89854 18.0486 2.89854C17.6227 2.89854 17.263 2.7755 17.0643 2.56728C16.9412 2.42532 16.8845 2.28335 16.8371 1.93316L16.0043 1.93316C16.0421 3.07837 16.6857 3.62731 17.9823 3.62731C19.2316 3.62731 20.0267 3.01211 20.0267 2.0562C20.0267 1.31797 19.6102 0.911001 18.6259 0.674389L17.8688 0.494564C17.2252 0.343132 16.9507 0.134914 16.9507 -0.215272C16.9507 -0.669567 17.3577 -0.962966 18.0013 -0.962966C18.6354 -0.962966 18.9761 -0.688496 18.995 -0.16795ZM18.995 -0.16795" fill="#4c4c4c"/>
  <path d="M21.0583 3.40962M21.8533 -3.48998L21.0583 -3.48998L21.0583 3.40962L21.8533 3.40962ZM21.8533 3.40962" fill="#4c4c4c"/>
  <path d="M22.9133 3.40962M27.5793 2.94586C27.4941 2.96479 27.4562 2.96479 27.4089 2.96479C27.1345 2.96479 26.983 2.82283 26.983 2.57675L26.983 -0.33831C26.983 -1.21851 26.3394 -1.69173 25.1185 -1.69173C24.3992 -1.69173 23.803 -1.48351 23.4717 -1.1144C23.2446 -0.858856 23.1499 -0.574922 23.131 -0.0827693L23.926 -0.0827693C23.9922 -0.688496 24.3519 -0.962966 25.0901 -0.962966C25.8 -0.962966 26.1975 -0.69796 26.1975 -0.224736L26.1975 -0.016518C26.1975 0.314739 25.9987 0.456706 25.3741 0.532422C24.2572 0.674389 24.0869 0.712247 23.784 0.835285C23.2067 1.0719 22.9133 1.51673 22.9133 2.16031C22.9133 3.05944 23.5379 3.62731 24.5412 3.62731C25.1658 3.62731 25.6675 3.40962 26.2259 2.89854C26.2826 3.40016 26.5287 3.62731 27.0398 3.62731C27.2007 3.62731 27.3237 3.60838 27.5793 3.54213ZM27.5793 3.54213M26.1975 1.84798C26.1975 2.11299 26.1218 2.27389 25.8851 2.49157C25.5633 2.78497 25.1753 2.9364 24.7115 2.9364C24.0964 2.9364 23.7367 2.643 23.7367 2.14138C23.7367 1.62084 24.0869 1.35583 24.9292 1.23279C25.7621 1.11922 25.9325 1.08136 26.1975 0.958323ZM26.1975 0.958323" fill="#4c4c4c"/>
  <path d="M28.4405 3.40962M28.4405 -1.54976L28.4405 3.40962L29.2355 3.40962L29.2355 0.674389C29.2355 -0.33831 29.7655 -1.00082 30.5795 -1.00082C31.2041 -1.00082 31.6016 -0.622245 31.6016 -0.0259824L31.6016 3.40962L32.3872 3.40962L32.3872 -0.33831C32.3872 -1.16172 31.772 -1.69173 30.8161 -1.69173C30.0778 -1.69173 29.6046 -1.4078 29.1693 -0.716889L29.1693 -1.54976ZM29.1693 -1.54976" fill="#4c4c4c"/>
  <path d="M33.2862 3.40962M37.7251 -3.48998L36.9395 -3.48998L36.9395 -0.925108C36.6083 -1.42673 36.0783 -1.69173 35.4157 -1.69173C34.1286 -1.69173 33.2862 -0.660102 33.2862 0.920465C33.2862 2.59568 34.1096 3.62731 35.4441 3.62731C36.1256 3.62731 36.5988 3.37177 37.0247 2.75657L37.0247 3.40962L37.7251 3.40962ZM37.7251 3.40962M35.5482 -0.953501C36.4001 -0.953501 36.9395 -0.196343 36.9395 0.986717C36.9395 2.13192 36.3906 2.88908 35.5577 2.88908C34.687 2.88908 34.1096 2.12245 34.1096 0.967788C34.1096 -0.186879 34.687 -0.953501 35.5482 -0.953501ZM35.5482 -0.953501" fill="#4c4c4c"/>
  <path d="M38.6809 3.40962M43.1576 1.19494C43.1576 0.437777 43.1008 -0.016518 42.9589 -0.385633C42.6371 -1.19958 41.8799 -1.69173 40.9524 -1.69173C39.5706 -1.69173 38.6809 -0.631709 38.6809 0.996181C38.6809 2.62407 39.5422 3.62731 40.9335 3.62731C42.0692 3.62731 42.8548 2.98372 43.0535 1.90477L42.2585 1.90477C42.0408 2.55782 41.596 2.89854 40.9619 2.89854C40.4603 2.89854 40.0343 2.67139 39.7693 2.25496C39.5801 1.97102 39.5138 1.68709 39.5043 1.19494ZM39.5043 1.19494M39.5233 0.551351C39.5895 -0.366704 40.1479 -0.962966 40.9429 -0.962966C41.719 -0.962966 42.3153 -0.319381 42.3153 0.494564C42.3153 0.513493 42.3153 0.532422 42.3058 0.551351ZM42.3058 0.551351" fill="#4c4c4c"/>
  <path d="M44.2271 3.40962M44.2271 -1.54976L44.2271 3.40962L45.0221 3.40962L45.0221 0.674389C45.0221 -0.33831 45.5521 -1.00082 46.366 -1.00082C46.9907 -1.00082 47.3882 -0.622245 47.3882 -0.0259824L47.3882 3.40962L48.1737 3.40962L48.1737 -0.33831C48.1737 -1.16172 47.5585 -1.69173 46.6026 -1.69173C45.8644 -1.69173 45.3912 -1.4078 44.9558 -0.716889L44.9558 -1.54976ZM44.9558 -1.54976" fill="#4c4c4c"/>
  <path d="M51.8363 3.40962M56.313 1.19494C56.313 0.437777 56.2562 -0.016518 56.1143 -0.385633C55.7925 -1.19958 55.0353 -1.69173 54.1078 -1.69173C52.726 -1.69173 51.8363 -0.631709 51.8363 0.996181C51.8363 2.62407 52.6976 3.62731 54.0889 3.62731C55.2246 3.62731 56.0102 2.98372 56.2089 1.90477L55.4139 1.90477C55.1962 2.55782 54.7514 2.89854 54.1173 2.89854C53.6157 2.89854 53.1898 2.67139 52.9248 2.25496C52.7355 1.97102 52.6692 1.68709 52.6597 1.19494ZM52.6597 1.19494M52.6787 0.551351C52.7449 -0.366704 53.3033 -0.962966 54.0983 -0.962966C54.8744 -0.962966 55.4707 -0.319381 55.4707 0.494564C55.4707 0.513493 55.4707 0.532422 55.4612 0.551351ZM55.4612 0.551351" fill="#4c4c4c"/>
  <path d="M57.3825 3.40962M57.3825 -1.54976L57.3825 3.40962L58.1775 3.40962L58.1775 0.674389C58.1775 -0.33831 58.7075 -1.00082 59.5214 -1.00082C60.1461 -1.00082 60.5436 -0.622245 60.5436 -0.0259824L60.5436 3.40962L61.3291 3.40962L61.3291 -0.33831C61.3291 -1.16172 60.714 -1.69173 59.758 -1.69173C59.0198 -1.69173 58.5466 -1.4078 58.1112 -0.716889L58.1112 -1.54976ZM58.1112 -1.54976" fill="#4c4c4c"/>
  <path d="M64.67 3.40962M69.8565 3.40962L71.314 -1.54976L70.4244 -1.54976L69.4401 2.31174L68.4652 -1.54976L67.4998 -1.54976L66.5534 2.31174L65.5407 -1.54976L64.67 -1.54976L66.1086 3.40962L66.9982 3.40962L67.9541 -0.480277L68.9574 3.40962ZM68.9574 3.40962" fill="#4c4c4c"/>
  <path d="M71.7304 3.40962M76.2071 1.19494C76.2071 0.437777 76.1504 -0.016518 76.0084 -0.385633C75.6866 -1.19958 74.9294 -1.69173 74.0019 -1.69173C72.6201 -1.69173 71.7304 -0.631709 71.7304 0.996181C71.7304 2.62407 72.5917 3.62731 73.983 3.62731C75.1187 3.62731 75.9043 2.98372 76.103 1.90477L75.308 1.90477C75.0903 2.55782 74.6455 2.89854 74.0114 2.89854C73.5098 2.89854 73.0839 2.67139 72.8189 2.25496C72.6296 1.97102 72.5633 1.68709 72.5538 1.19494ZM72.5538 1.19494M72.5728 0.551351C72.639 -0.366704 73.1974 -0.962966 73.9925 -0.962966C74.7685 -0.962966 75.3648 -0.319381 75.3648 0.494564C75.3648 0.513493 75.3648 0.532422 75.3553 0.551351ZM75.3553 0.551351" fill="#4c4c4c"/>
  <path d="M77.2387 3.40962M78.0337 -1.54976L77.2482 -1.54976L77.2482 3.40962L78.0337 3.40962ZM78.0337 3.40962M78.0337 -3.48998L77.2387 -3.48998L77.2387 -2.49621L78.0337 -2.49621ZM78.0337 -2.49621" fill="#4c4c4c"/>
  <path d="M79.3587 3.40962M80.1537 -3.48998L79.3587 -3.48998L79.3587 3.40962L80.1537 3.40962ZM80.1537 3.40962" fill="#4c4c4c"/>
  <path d="M81.2137 3.40962M85.8797 2.94586C85.7945 2.96479 85.7567 2.96479 85.7094 2.96479C85.4349 2.96479 85.2835 2.82283 85.2835 2.57675L85.2835 -0.33831C85.2835 -1.21851 84.6399 -1.69173 83.4189 -1.69173C82.6996 -1.69173 82.1034 -1.48351 81.7721 -1.1144C81.545 -0.858856 81.4503 -0.574922 81.4314 -0.0827693L82.2264 -0.0827693C82.2927 -0.688496 82.6523 -0.962966 83.3906 -0.962966C84.1004 -0.962966 84.4979 -0.69796 84.4979 -0.224736L84.4979 -0.016518C84.4979 0.314739 84.2991 0.456706 83.6745 0.532422C82.5577 0.674389 82.3873 0.712247 82.0845 0.835285C81.5071 1.0719 81.2137 1.51673 81.2137 2.16031C81.2137 3.05944 81.8384 3.62731 82.8416 3.62731C83.4663 3.62731 83.9679 3.40962 84.5263 2.89854C84.5831 3.40016 84.8292 3.62731 85.3402 3.62731C85.5011 3.62731 85.6242 3.60838 85.8797 3.54213ZM85.8797 3.54213M84.4979 1.84798C84.4979 2.11299 84.4222 2.27389 84.1856 2.49157C83.8638 2.78497 83.4757 2.9364 83.012 2.9364C82.3968 2.9364 82.0371 2.643 82.0371 2.14138C82.0371 1.62084 82.3873 1.35583 83.2297 1.23279C84.0625 1.11922 84.2329 1.08136 84.4979 0.958323ZM84.4979 0.958323" fill="#4c4c4c"/>
  <path d="M86.7409 3.40962M86.7409 -1.54976L86.7409 3.40962L87.5359 3.40962L87.5359 0.674389C87.5359 -0.33831 88.0659 -1.00082 88.8799 -1.00082C89.5045 -1.00082 89.9021 -0.622245 89.9021 -0.0259824L89.9021 3.40962L90.6876 3.40962L90.6876 -0.33831C90.6876 -1.16172 90.0724 -1.69173 89.1165 -1.69173C88.3783 -1.69173 87.905 -1.4078 87.4697 -0.716889L87.4697 -1.54976ZM87.4697 -1.54976" fill="#4c4c4c"/>
  <path d="M91.5867 3.40962M96.0255 -3.48998L95.24 -3.48998L95.24 -0.925108C94.9087 -1.42673 94.3787 -1.69173 93.7162 -1.69173C92.429 -1.69173 91.5867 -0.660102 91.5867 0.920465C91.5867 2.59568 92.4101 3.62731 93.7446 3.62731C94.426 3.62731 94.8992 3.37177 95.3251 2.75657L95.3251 3.40962L96.0255 3.40962ZM96.0255 3.40962M93.8487 -0.953501C94.7005 -0.953501 95.24 -0.196343 95.24 0.986717C95.24 2.13192 94.691 2.88908 93.8581 2.88908C92.9874 2.88908 92.4101 2.12245 92.4101 0.967788C92.4101 -0.186879 92.9874 -0.953501 93.8487 -0.953501ZM93.8487 -0.953501" fill="#4c4c4c"/>
  <path d="M96.9814 3.40962M101.458 1.19494C101.458 0.437777 101.401 -0.016518 101.259 -0.385633C100.938 -1.19958 100.18 -1.69173 99.2528 -1.69173C97.871 -1.69173 96.9814 -0.631709 96.9814 0.996181C96.9814 2.62407 97.8426 3.62731 99.2339 3.62731C100.37 3.62731 101.155 2.98372 101.354 1.90477L100.559 1.90477C100.341 2.55782 99.8964 2.89854 99.2623 2.89854C98.7607 2.89854 98.3348 2.67139 98.0698 2.25496C97.8805 1.97102 97.8142 1.68709 97.8048 1.19494ZM97.8048 1.19494M97.8237 0.551351C97.89 -0.366704 98.4484 -0.962966 99.2434 -0.962966C100.019 -0.962966 100.616 -0.319381 100.616 0.494564C100.616 0.513493 100.616 0.532422 100.606 0.551351ZM100.606 0.551351" fill="#4c4c4c"/>
  <path d="M102.527 3.40962M102.527 -1.54976L102.527 3.40962L103.322 3.40962L103.322 0.674389C103.322 -0.33831 103.853 -1.00082 104.666 -1.00082C105.291 -1.00082 105.689 -0.622245 105.689 -0.0259824L105.689 3.40962L106.474 3.40962L106.474 -0.33831C106.474 -1.16172 105.859 -1.69173 104.903 -1.69173C104.165 -1.69173 103.692 -1.4078 103.256 -0.716889L103.256 -1.54976ZM103.256 -1.54976" fill="#4c4c4c"/>
 </g>
 <g transform="matrix(1.000000,0.000000,0.000000,1.000000,80.877247,-26.278611)">
  <path d="M0.747694 3.34096M0.747694 3.34096L3.86151 3.34096C4.51456 3.34096 4.99724 3.16113 5.36636 2.76362C5.70708 2.40397 5.89637 1.91182 5.89637 1.37235C5.89637 0.539471 5.51779 0.0378538 4.63759 -0.302867C5.26225 -0.596266 5.59351 -1.10735 5.59351 -1.80772C5.59351 -2.30934 5.40422 -2.75417 5.04457 -3.07596C4.68492 -3.40722 4.21169 -3.55865 3.54918 -3.55865L0.747694 -3.55865ZM0.747694 -3.55865M1.62789 -0.586802L1.62789 -2.78256L3.3315 -2.78256C3.82365 -2.78256 4.09812 -2.71631 4.33473 -2.53648C4.58081 -2.34719 4.71331 -2.06326 4.71331 -1.68468C4.71331 -1.31557 4.58081 -1.02217 4.33473 -0.832878C4.09812 -0.653053 3.82365 -0.586802 3.3315 -0.586802ZM3.3315 -0.586802M1.62789 2.56487L1.62789 0.189285L3.77633 0.189285C4.20223 0.189285 4.48616 0.293395 4.69438 0.520542C4.9026 0.738225 5.01617 1.04109 5.01617 1.38181C5.01617 1.71307 4.9026 2.01593 4.69438 2.23361C4.48616 2.46076 4.20223 2.56487 3.77633 2.56487ZM3.77633 2.56487" fill="#4c4c4c"/>
  <path d="M6.65344 3.34096M8.88706 -1.7604C7.49578 -1.7604 6.65344 -0.766627 6.65344 0.899121C6.65344 2.56487 7.48632 3.55864 8.89652 3.55864C10.2878 3.55864 11.1396 2.56487 11.1396 0.936979C11.1396 -0.776091 10.3162 -1.7604 8.88706 -1.7604ZM8.88706 -1.7604M8.89652 -1.03163C9.78619 -1.03163 10.3162 -0.302867 10.3162 0.927515C10.3162 2.09165 9.76726 2.82987 8.89652 2.82987C8.01633 2.82987 7.47685 2.10111 7.47685 0.899121C7.47685 -0.293403 8.01633 -1.03163 8.89652 -1.03163ZM8.89652 -1.03163" fill="#4c4c4c"/>
  <path d="M11.8967 3.34096M15.7204 -0.236616C15.7109 -1.21146 15.0673 -1.7604 13.9221 -1.7604C12.7674 -1.7604 12.0197 -1.16413 12.0197 -0.246081C12.0197 0.530007 12.4172 0.899121 13.5908 1.18306L14.3291 1.36288C14.878 1.49538 15.0957 1.69414 15.0957 2.05379C15.0957 2.51755 14.6319 2.82987 13.941 2.82987C13.5151 2.82987 13.1555 2.70684 12.9567 2.49862C12.8337 2.35665 12.7769 2.21468 12.7296 1.8645L11.8967 1.8645C11.9346 3.0097 12.5781 3.55864 13.8748 3.55864C15.1241 3.55864 15.9191 2.94345 15.9191 1.98754C15.9191 1.24931 15.5027 0.842334 14.5184 0.605722L13.7612 0.425897C13.1176 0.274466 12.8432 0.0662472 12.8432 -0.283938C12.8432 -0.738233 13.2501 -1.03163 13.8937 -1.03163C14.5278 -1.03163 14.8685 -0.757162 14.8875 -0.236616ZM14.8875 -0.236616" fill="#4c4c4c"/>
  <path d="M19.3168 3.34096M23.7935 1.12627C23.7935 0.369111 23.7367 -0.0851844 23.5947 -0.454299C23.2729 -1.26824 22.5158 -1.7604 21.5882 -1.7604C20.2064 -1.7604 19.3168 -0.700375 19.3168 0.927515C19.3168 2.5554 20.178 3.55864 21.5693 3.55864C22.705 3.55864 23.4906 2.91506 23.6894 1.8361L22.8943 1.8361C22.6767 2.48915 22.2318 2.82987 21.5977 2.82987C21.0961 2.82987 20.6702 2.60273 20.4052 2.18629C20.2159 1.90236 20.1496 1.61842 20.1402 1.12627ZM20.1402 1.12627M20.1591 0.482684C20.2254 -0.43537 20.7838 -1.03163 21.5788 -1.03163C22.3549 -1.03163 22.9511 -0.388048 22.9511 0.425897C22.9511 0.444826 22.9511 0.463755 22.9417 0.482684ZM22.9417 0.482684" fill="#4c4c4c"/>
  <path d="M24.8629 3.34096M24.8629 -1.61843L24.8629 3.34096L25.6579 3.34096L25.6579 0.605722C25.6579 -0.406977 26.1879 -1.06949 27.0019 -1.06949C27.6265 -1.06949 28.024 -0.690911 28.024 -0.0946489L28.024 3.34096L28.8096 3.34096L28.8096 -0.406977C28.8096 -1.23039 28.1944 -1.7604 27.2385 -1.7604C26.5002 -1.7604 26.027 -1.47646 25.5916 -0.785556L25.5916 -1.61843ZM25.5916 -1.61843" fill="#4c4c4c"/>
  <path d="M32.6047 3.34096M32.6047 -3.55865L32.6047 3.34096L33.3145 3.34096L33.3145 2.70684C33.6931 3.28417 34.1947 3.55864 34.8856 3.55864C36.1917 3.55864 37.0435 2.48915 37.0435 0.842334C37.0435 -0.766627 36.2296 -1.7604 34.9235 -1.7604C34.242 -1.7604 33.7593 -1.50486 33.3902 -0.946452L33.3902 -3.55865ZM33.3902 -3.55865M34.772 -1.02217C35.6522 -1.02217 36.2201 -0.255545 36.2201 0.927515C36.2201 2.05379 35.6333 2.82041 34.772 2.82041C33.9392 2.82041 33.3902 2.06325 33.3902 0.899121C33.3902 -0.265009 33.9392 -1.02217 34.772 -1.02217ZM34.772 -1.02217" fill="#4c4c4c"/>
  <path d="M37.6965 3.34096M39.9301 -1.7604C38.5388 -1.7604 37.6965 -0.766627 37.6965 0.899121C37.6965 2.56487 38.5294 3.55864 39.9396 3.55864C41.3309 3.55864 42.1827 2.56487 42.1827 0.936979C42.1827 -0.776091 41.3593 -1.7604 39.9301 -1.7604ZM39.9301 -1.7604M39.9396 -1.03163C40.8292 -1.03163 41.3593 -0.302867 41.3593 0.927515C41.3593 2.09165 40.8103 2.82987 39.9396 2.82987C39.0594 2.82987 38.5199 2.10111 38.5199 0.899121C38.5199 -0.293403 39.0594 -1.03163 39.9396 -1.03163ZM39.9396 -1.03163" fill="#4c4c4c"/>
  <path d="M43.2805 3.34096M43.2805 -1.61843L43.2805 3.34096L44.0755 3.34096L44.0755 0.227143C44.0755 -0.492157 44.596 -1.06949 45.2396 -1.06949C45.8264 -1.06949 46.1577 -0.70984 46.1577 -0.0757199L46.1577 3.34096L46.9527 3.34096L46.9527 0.227143C46.9527 -0.492157 47.4732 -1.06949 48.1168 -1.06949C48.6942 -1.06949 49.0349 -0.700375 49.0349 -0.0757199L49.0349 3.34096L49.8299 3.34096L49.8299 -0.378583C49.8299 -1.26824 49.3188 -1.7604 48.3913 -1.7604C47.7288 -1.7604 47.3313 -1.56164 46.8675 -1.00324C46.5741 -1.53325 46.1766 -1.7604 45.533 -1.7604C44.8705 -1.7604 44.4351 -1.51432 44.0092 -0.918058L44.0092 -1.61843ZM44.0092 -1.61843" fill="#4c4c4c"/>
  <path d="M50.8804 3.34096M55.3571 1.12627C55.3571 0.369111 55.3003 -0.0851844 55.1584 -0.454299C54.8366 -1.26824 54.0794 -1.7604 53.1519 -1.7604C51.7701 -1.7604 50.8804 -0.700375 50.8804 0.927515C50.8804 2.5554 51.7417 3.55864 53.133 3.55864C54.2687 3.55864 55.0543 2.91506 55.253 1.8361L54.458 1.8361C54.2403 2.48915 53.7955 2.82987 53.1614 2.82987C52.6597 2.82987 52.2338 2.60273 51.9688 2.18629C51.7795 1.90236 51.7133 1.61842 51.7038 1.12627ZM51.7038 1.12627M51.7228 0.482684C51.789 -0.43537 52.3474 -1.03163 53.1424 -1.03163C53.9185 -1.03163 54.5148 -0.388048 54.5148 0.425897C54.5148 0.444826 54.5148 0.463755 54.5053 0.482684ZM54.5053 0.482684" fill="#4c4c4c"/>
  <path d="M56.4265 3.34096M56.4265 -1.61843L56.4265 3.34096L57.2216 3.34096L57.2216 0.605722C57.2216 -0.406977 57.7516 -1.06949 58.5655 -1.06949C59.1902 -1.06949 59.5877 -0.690911 59.5877 -0.0946489L59.5877 3.34096L60.3732 3.34096L60.3732 -0.406977C60.3732 -1.23039 59.758 -1.7604 58.8021 -1.7604C58.0639 -1.7604 57.5907 -1.47646 57.1553 -0.785556L57.1553 -1.61843ZM57.1553 -1.61843" fill="#4c4c4c"/>
 </g>
 <g stroke-width="0.850394">
  <path d="M0 -12.2183L-13.876 -4.50859L-14.5922 20.0844L9.52627 13.1118L37.4432 -12.166Z" stroke="#b1dfd5" fill="none"/>
  <path d="M0 -12.2183L-13.876 -4.50859L-14.5922 20.0844L9.52627 13.1118L37.4432 -12.166Z" stroke="none" fill="#b1dfd5" opacity="0.100000"/>
 </g>
 <g stroke-width="1.700787">
  <path d="M-177.165 113.386l28.3465 -0" stroke="#b1dfd5"/>
 </g>
 <g transform="matrix(1.000000,0.000000,0.000000,1.000000,-145.984252,113.385827)">
  <path d="M0.747694 3.34096M1.62789 0.927515L2.75416 -0.198758L5.18653 3.34096L6.22763 3.34096L3.38828 -0.747698L6.19923 -3.55865L5.0635 -3.55865L1.62789 -0.0662554L1.62789 -3.55865L0.747694 -3.55865L0.747694 3.34096L1.62789 3.34096ZM1.62789 3.34096" fill="#4c4c4c"/>
  <path d="M6.31281 3.34096M10.7895 1.12627C10.7895 0.369111 10.7327 -0.0851844 10.5908 -0.454299C10.269 -1.26824 9.5118 -1.7604 8.58428 -1.7604C7.20247 -1.7604 6.31281 -0.700375 6.31281 0.927515C6.31281 2.5554 7.17408 3.55864 8.56535 3.55864C9.70109 3.55864 10.4866 2.91506 10.6854 1.8361L9.89038 1.8361C9.6727 2.48915 9.22787 2.82987 8.59375 2.82987C8.09213 2.82987 7.66623 2.60273 7.40122 2.18629C7.21193 1.90236 7.14568 1.61842 7.13622 1.12627ZM7.13622 1.12627M7.15515 0.482684C7.2214 -0.43537 7.7798 -1.03163 8.57482 -1.03163C9.35091 -1.03163 9.94717 -0.388048 9.94717 0.425897C9.94717 0.444826 9.94717 0.463755 9.9377 0.482684ZM9.9377 0.482684" fill="#4c4c4c"/>
  <path d="M11.8495 3.34096M11.8495 -1.61843L11.8495 3.34096L12.6445 3.34096L12.6445 0.766619C12.6445 0.0567828 12.8243 -0.406977 13.2029 -0.681446C13.449 -0.861272 13.6856 -0.918058 14.2345 -0.927523L14.2345 -1.732C14.102 -1.75093 14.0358 -1.7604 13.9317 -1.7604C13.4206 -1.7604 13.0325 -1.45753 12.5782 -0.719304L12.5782 -1.61843ZM12.5782 -1.61843" fill="#4c4c4c"/>
  <path d="M15.2472 3.34096M15.2472 -1.61843L15.2472 3.34096L16.0422 3.34096L16.0422 0.605722C16.0422 -0.406977 16.5722 -1.06949 17.3861 -1.06949C18.0108 -1.06949 18.4083 -0.690911 18.4083 -0.0946489L18.4083 3.34096L19.1939 3.34096L19.1939 -0.406977C19.1939 -1.23039 18.5787 -1.7604 17.6227 -1.7604C16.8845 -1.7604 16.4113 -1.47646 15.9759 -0.785556L15.9759 -1.61843ZM15.9759 -1.61843" fill="#4c4c4c"/>
  <path d="M20.1686 3.34096M23.9923 -0.236616C23.9828 -1.21146 23.3392 -1.7604 22.194 -1.7604C21.0394 -1.7604 20.2917 -1.16413 20.2917 -0.246081C20.2917 0.530007 20.6892 0.899121 21.8628 1.18306L22.601 1.36288C23.1499 1.49538 23.3676 1.69414 23.3676 2.05379C23.3676 2.51755 22.9039 2.82987 22.213 2.82987C21.7871 2.82987 21.4274 2.70684 21.2287 2.49862C21.1056 2.35665 21.0488 2.21468 21.0015 1.8645L20.1686 1.8645C20.2065 3.0097 20.8501 3.55864 22.1467 3.55864C23.396 3.55864 24.191 2.94345 24.191 1.98754C24.191 1.24931 23.7746 0.842334 22.7903 0.605722L22.0331 0.425897C21.3895 0.274466 21.1151 0.0662472 21.1151 -0.283938C21.1151 -0.738233 21.5221 -1.03163 22.1656 -1.03163C22.7998 -1.03163 23.1405 -0.757162 23.1594 -0.236616ZM23.1594 -0.236616" fill="#4c4c4c"/>
  <path d="M24.7116 3.34096M26.9831 -1.61843L26.1691 -1.61843L26.1691 -2.98131L25.3836 -2.98131L25.3836 -1.61843L24.7116 -1.61843L24.7116 -0.974845L25.3836 -0.974845L25.3836 2.77309C25.3836 3.27471 25.7243 3.55864 26.3395 3.55864C26.5288 3.55864 26.718 3.53971 26.9831 3.49239L26.9831 2.82987C26.8789 2.85827 26.7559 2.86773 26.6045 2.86773C26.2638 2.86773 26.1691 2.77309 26.1691 2.4229L26.1691 -0.974845L26.9831 -0.974845ZM26.9831 -0.974845" fill="#4c4c4c"/>
  <path d="M27.8253 3.34096M31.772 3.34096L31.772 -1.61843L30.9864 -1.61843L30.9864 1.19252C30.9864 2.20522 30.4564 2.86773 29.633 2.86773C29.0084 2.86773 28.6109 2.48915 28.6109 1.89289L28.6109 -1.61843L27.8253 -1.61843L27.8253 2.20522C27.8253 3.02863 28.4405 3.55864 29.4059 3.55864C30.1346 3.55864 30.5984 3.3031 31.0622 2.65005L31.0622 3.34096ZM31.0622 3.34096" fill="#4c4c4c"/>
  <path d="M32.7184 3.34096M37.1572 -3.55865L36.3717 -3.55865L36.3717 -0.993774C36.0404 -1.49539 35.5104 -1.7604 34.8479 -1.7604C33.5607 -1.7604 32.7184 -0.728769 32.7184 0.851799C32.7184 2.52701 33.5418 3.55864 34.8763 3.55864C35.5577 3.55864 36.0309 3.3031 36.4568 2.68791L36.4568 3.34096L37.1572 3.34096ZM37.1572 3.34096M34.9804 -1.02217C35.8322 -1.02217 36.3717 -0.265009 36.3717 0.91805C36.3717 2.06325 35.8227 2.82041 34.9899 2.82041C34.1191 2.82041 33.5418 2.05379 33.5418 0.899121C33.5418 -0.255545 34.1191 -1.02217 34.9804 -1.02217ZM34.9804 -1.02217" fill="#4c4c4c"/>
  <path d="M38.3591 3.34096M39.1542 -1.61843L38.3686 -1.61843L38.3686 3.34096L39.1542 3.34096ZM39.1542 3.34096M39.1542 -3.55865L38.3591 -3.55865L38.3591 -2.56488L39.1542 -2.56488ZM39.1542 -2.56488" fill="#4c4c4c"/>
  <path d="M40.2142 3.34096M44.6908 1.12627C44.6908 0.369111 44.6341 -0.0851844 44.4921 -0.454299C44.1703 -1.26824 43.4131 -1.7604 42.4856 -1.7604C41.1038 -1.7604 40.2142 -0.700375 40.2142 0.927515C40.2142 2.5554 41.0754 3.55864 42.4667 3.55864C43.6024 3.55864 44.388 2.91506 44.5867 1.8361L43.7917 1.8361C43.574 2.48915 43.1292 2.82987 42.4951 2.82987C41.9935 2.82987 41.5676 2.60273 41.3026 2.18629C41.1133 1.90236 41.047 1.61842 41.0376 1.12627ZM41.0376 1.12627M41.0565 0.482684C41.1227 -0.43537 41.6811 -1.03163 42.4762 -1.03163C43.2522 -1.03163 43.8485 -0.388048 43.8485 0.425897C43.8485 0.444826 43.8485 0.463755 43.839 0.482684ZM43.839 0.482684" fill="#4c4c4c"/>
 </g>
</svg>
