<?xml version="1.0" encoding="utf-8"?>
<svg xmlns="http://www.w3.org/2000/svg" fill="none" version="1.1" viewBox="-223.61 -89.6051 447.219 207.488" x="-223.61pt" y="-89.6051pt" width="447.219pt" height="207.488pt" stroke-width="1.133858" stroke-miterlimit="10.000000">
 <g stroke-linecap="butt" stroke-dasharray="none">
  <path d="M0 -0L4.3393e-15 -70.8661" stroke="#e5e5e5"/>
 </g>
 <g stroke-linecap="butt" stroke-dasharray="none">
  <path d="M0 -0L-67.3977 -21.8988" stroke="#e5e5e5"/>
 </g>
 <g stroke-linecap="butt" stroke-dasharray="none">
  <path d="M0 -0L-41.6541 57.3319" stroke="#e5e5e5"/>
 </g>
 <g stroke-linecap="butt" stroke-dasharray="none">
  <path d="M0 -0L41.6541 57.3319" stroke="#e5e5e5"/>
 </g>
 <g stroke-linecap="butt" stroke-dasharray="none">
  <path d="M0 -0L67.3977 -21.8988" stroke="#e5e5e5"/>
 </g>
 <g stroke-linecap="round" stroke-dasharray="0.000000 4.000000" stroke-dashoffset="0.000000">
  <path d="M0 -0L0 -0L-0 -0L-0 0L0 0L0 -0Z" stroke="#4c4c4c"/>
 </g>
 <g stroke-linecap="round" stroke-dasharray="0.000000 4.000000" stroke-dashoffset="0.000000">
  <path d="M0 -14.1732L8.6786e-16 -14.1732L-13.4795 -4.37977L-8.33081 11.4664L8.33081 11.4664L13.4795 -4.37977Z" stroke="#4c4c4c"/>
 </g>
 <g stroke-linecap="round" stroke-dasharray="0.000000 4.000000" stroke-dashoffset="0.000000">
  <path d="M0 -28.3465L1.73572e-15 -28.3465L-26.9591 -8.75954L-16.6616 22.9328L16.6616 22.9328L26.9591 -8.75954Z" stroke="#4c4c4c"/>
 </g>
 <g stroke-linecap="round" stroke-dasharray="0.000000 4.000000" stroke-dashoffset="0.000000">
  <path d="M0 -42.5197L2.60358e-15 -42.5197L-40.4386 -13.1393L-24.9924 34.3991L24.9924 34.3991L40.4386 -13.1393Z" stroke="#4c4c4c"/>
 </g>
 <g stroke-linecap="round" stroke-dasharray="0.000000 4.000000" stroke-dashoffset="0.000000">
  <path d="M0 -56.6929L3.47144e-15 -56.6929L-53.9182 -17.5191L-33.3233 45.8655L33.3233 45.8655L53.9182 -17.5191Z" stroke="#4c4c4c"/>
 </g>
 <g stroke-linecap="butt" stroke-dasharray="none">
  <path d="M0 -70.8661L4.3393e-15 -70.8661L-67.3977 -21.8988L-41.6541 57.3319L41.6541 57.3319L67.3977 -21.8988Z" stroke="#e5e5e5"/>
 </g>
 <g transform="matrix(1.000000,0.000000,0.000000,1.000000,0.000000,-85.039370)">
  <text x="-18.933440" y="3.409623" font-size="9.464478" font-family="Helvetica" fill="#4c4c4c" opacity="1.000000">C</text>
  <text x="-12.100117" y="3.409623" font-size="9.464478" font-family="Helvetica" fill="#4c4c4c" opacity="1.000000">l</text>
  <text x="-9.999033" y="3.409623" font-size="9.464478" font-family="Helvetica" fill="#4c4c4c" opacity="1.000000">u</text>
  <text x="-4.736845" y="3.409623" font-size="9.464478" font-family="Helvetica" fill="#4c4c4c" opacity="1.000000">s</text>
  <text x="-0.004606" y="3.409623" font-size="9.464478" font-family="Helvetica" fill="#4c4c4c" opacity="1.000000">t</text>
  <text x="2.626427" y="3.409623" font-size="9.464478" font-family="Helvetica" fill="#4c4c4c" opacity="1.000000">e</text>
  <text x="7.888615" y="3.409623" font-size="9.464478" font-family="Helvetica" fill="#4c4c4c" opacity="1.000000">r</text>
  <text x="13.671282" y="3.409623" font-size="9.464478" font-family="Helvetica" fill="#4c4c4c" opacity="1.000000">3</text>
 </g>
 <g transform="matrix(1.000000,0.000000,0.000000,1.000000,-80.877247,-26.278611)">
  <text x="-37.866910" y="3.409623" font-size="9.464478" font-family="Helvetica" fill="#4c4c4c" opacity="1.000000">C</text>
  <text x="-31.033587" y="3.409623" font-size="9.464478" font-family="Helvetica" fill="#4c4c4c" opacity="1.000000">l</text>
  <text x="-28.932503" y="3.409623" font-size="9.464478" font-family="Helvetica" fill="#4c4c4c" opacity="1.000000">u</text>
  <text x="-23.670315" y="3.409623" font-size="9.464478" font-family="Helvetica" fill="#4c4c4c" opacity="1.000000">s</text>
  <text x="-18.938076" y="3.409623" font-size="9.464478" font-family="Helvetica" fill="#4c4c4c" opacity="1.000000">t</text>
  <text x="-16.307043" y="3.409623" font-size="9.464478" font-family="Helvetica" fill="#4c4c4c" opacity="1.000000">e</text>
  <text x="-11.044855" y="3.409623" font-size="9.464478" font-family="Helvetica" fill="#4c4c4c" opacity="1.000000">r</text>
  <text x="-5.262188" y="3.409623" font-size="9.464478" font-family="Helvetica" fill="#4c4c4c" opacity="1.000000">4</text>
 </g>
 <g transform="matrix(1.000000,0.000000,0.000000,1.000000,-49.984888,68.798296)">
  <text x="-54.703888" y="3.409623" font-size="9.464478" font-family="Helvetica" fill="#4c4c4c" opacity="1.000000">C</text>
  <text x="-47.870565" y="3.409623" font-size="9.464478" font-family="Helvetica" fill="#4c4c4c" opacity="1.000000">l</text>
  <text x="-45.769481" y="3.409623" font-size="9.464478" font-family="Helvetica" fill="#4c4c4c" opacity="1.000000">u</text>
  <text x="-40.507293" y="3.409623" font-size="9.464478" font-family="Helvetica" fill="#4c4c4c" opacity="1.000000">s</text>
  <text x="-35.775054" y="3.409623" font-size="9.464478" font-family="Helvetica" fill="#4c4c4c" opacity="1.000000">t</text>
  <text x="-33.144020" y="3.409623" font-size="9.464478" font-family="Helvetica" fill="#4c4c4c" opacity="1.000000">e</text>
  <text x="-27.881832" y="3.409623" font-size="9.464478" font-family="Helvetica" fill="#4c4c4c" opacity="1.000000">r</text>
  <text x="-22.099165" y="3.409623" font-size="9.464478" font-family="Helvetica" fill="#4c4c4c" opacity="1.000000">5</text>
  <text x="-14.205944" y="3.409623" font-size="9.464478" font-family="Helvetica" fill="#4c4c4c" opacity="1.000000">&amp;</text>
  <text x="-5.262188" y="3.409623" font-size="9.464478" font-family="Helvetica" fill="#4c4c4c" opacity="1.000000">6</text>
 </g>
 <g transform="matrix(1.000000,0.000000,0.000000,1.000000,49.984888,68.798296)">
  <text x="0.000000" y="3.409623" font-size="9.464478" font-family="Helvetica" fill="#4c4c4c" opacity="1.000000">C</text>
  <text x="6.833323" y="3.409623" font-size="9.464478" font-family="Helvetica" fill="#4c4c4c" opacity="1.000000">l</text>
  <text x="8.934407" y="3.409623" font-size="9.464478" font-family="Helvetica" fill="#4c4c4c" opacity="1.000000">u</text>
  <text x="14.196595" y="3.409623" font-size="9.464478" font-family="Helvetica" fill="#4c4c4c" opacity="1.000000">s</text>
  <text x="18.928834" y="3.409623" font-size="9.464478" font-family="Helvetica" fill="#4c4c4c" opacity="1.000000">t</text>
  <text x="21.559867" y="3.409623" font-size="9.464478" font-family="Helvetica" fill="#4c4c4c" opacity="1.000000">e</text>
  <text x="26.822055" y="3.409623" font-size="9.464478" font-family="Helvetica" fill="#4c4c4c" opacity="1.000000">r</text>
  <text x="32.604722" y="3.409623" font-size="9.464478" font-family="Helvetica" fill="#4c4c4c" opacity="1.000000">7</text>
  <text x="40.497944" y="3.409623" font-size="9.464478" font-family="Helvetica" fill="#4c4c4c" opacity="1.000000">&amp;</text>
  <text x="49.441699" y="3.409623" font-size="9.464478" font-family="Helvetica" fill="#4c4c4c" opacity="1.000000">9</text>
 </g>
 <g transform="matrix(1.000000,0.000000,0.000000,1.000000,80.877247,-26.278611)">
  <text x="0.000000" y="3.409623" font-size="9.464478" font-family="Helvetica" fill="#4c4c4c" opacity="1.000000">C</text>
  <text x="6.833323" y="3.409623" font-size="9.464478" font-family="Helvetica" fill="#4c4c4c" opacity="1.000000">l</text>
  <text x="8.934407" y="3.409623" font-size="9.464478" font-family="Helvetica" fill="#4c4c4c" opacity="1.000000">u</text>
  <text x="14.196595" y="3.409623" font-size="9.464478" font-family="Helvetica" fill="#4c4c4c" opacity="1.000000">s</text>
  <text x="18.928834" y="3.409623" font-size="9.464478" font-family="Helvetica" fill="#4c4c4c" opacity="1.000000">t</text>
  <text x="21.559867" y="3.409623" font-size="9.464478" font-family="Helvetica" fill="#4c4c4c" opacity="1.000000">e</text>
  <text x="26.822055" y="3.409623" font-size="9.464478" font-family="Helvetica" fill="#4c4c4c" opacity="1.000000">r</text>
  <text x="32.604722" y="3.409623" font-size="9.464478" font-family="Helvetica" fill="#4c4c4c" opacity="1.000000">8</text>
 </g>
 <g stroke-width="0.850394">
  <path d="M0 -1.13892L-10.709 -3.47955L-19.632 27.0212L2.74556 3.77894L3.64312 -1.18372Z" stroke="#e1d2c6" fill="none"/>
  <path d="M0 -1.13892L-10.709 -3.47955L-19.632 27.0212L2.74556 3.77894L3.64312 -1.18372Z" stroke="none" fill="#e1d2c6" opacity="0.100000"/>
 </g>
 <g stroke-width="1.700787">
  <path d="M-177.165 113.386l28.3465 -0" stroke="#e1d2c6"/>
 </g>
 <g transform="matrix(1.000000,0.000000,0.000000,1.000000,-145.984252,113.385827)">
  <text x="0.000000" y="3.340957" font-size="9.464478" font-family="Helvetica" fill="#4c4c4c" opacity="1.000000">K</text>
  <text x="5.934229" y="3.340957" font-size="9.464478" font-family="Helvetica" fill="#4c4c4c" opacity="1.000000">e</text>
  <text x="11.196417" y="3.340957" font-size="9.464478" font-family="Helvetica" fill="#4c4c4c" opacity="1.000000">r</text>
  <text x="14.584651" y="3.340957" font-size="9.464478" font-family="Helvetica" fill="#4c4c4c" opacity="1.000000">n</text>
  <text x="19.846839" y="3.340957" font-size="9.464478" font-family="Helvetica" fill="#4c4c4c" opacity="1.000000">s</text>
  <text x="24.579078" y="3.340957" font-size="9.464478" font-family="Helvetica" fill="#4c4c4c" opacity="1.000000">t</text>
  <text x="27.210111" y="3.340957" font-size="9.464478" font-family="Helvetica" fill="#4c4c4c" opacity="1.000000">u</text>
  <text x="32.472299" y="3.340957" font-size="9.464478" font-family="Helvetica" fill="#4c4c4c" opacity="1.000000">d</text>
  <text x="37.734487" y="3.340957" font-size="9.464478" font-family="Helvetica" fill="#4c4c4c" opacity="1.000000">i</text>
  <text x="39.835571" y="3.340957" font-size="9.464478" font-family="Helvetica" fill="#4c4c4c" opacity="1.000000">e</text>
 </g>
</svg>
